<?xml version="1.0" encoding="UTF-8"?>
<svg width="20px" height="20px" viewBox="0 0 20 20" version="1.1" xmlns="http://www.w3.org/2000/svg" xmlns:xlink="http://www.w3.org/1999/xlink">
    <!-- Generator: Sketch 54.1 (76490) - https://sketchapp.com -->
    <title>btc</title>
    <desc>Created with Sketch.</desc>
    <g id="Page-1" stroke="none" stroke-width="1" fill="none" fill-rule="evenodd">
        <g id="Transcrypt_Account-types" transform="translate(-206.000000, -757.000000)">
            <g id="level-1" transform="translate(145.000000, 432.000000)">
                <g id="table" transform="translate(0.000000, 242.000000)">
                    <g id="btc" transform="translate(61.000000, 83.000000)">
                        <path d="M19.7009875,12.4188585 C18.3651995,17.7769422 12.9385995,21.036292 7.57982034,19.7006773 C2.223854,18.3650626 -1.03685656,12.9388545 0.299556584,7.58202088 C1.63471958,2.22393725 7.061007,-1.03635008 12.417911,0.299264605 C17.7760651,1.63487929 21.0364631,7.0617124 19.700675,12.4188585 L19.7009875,12.4188585 Z" id="Path" fill="#F7931A"></path>
                        <path d="M13.6457578,9.05442454 C13.812223,7.9511524 12.9650015,7.35805942 11.8065398,6.96240499 L12.1823278,5.46788323 L11.2648094,5.24116573 L10.8989518,6.69630343 C10.654568,6.63676734 10.4096061,6.57958864 10.1641009,6.52477544 L10.5325717,5.06005083 L9.6153146,4.83333333 L9.23952667,6.32733689 C9.03987299,6.28225249 8.84387789,6.23768631 8.65363198,6.19078817 L8.65467729,6.18612427 L7.38933293,5.87286546 L7.1452537,6.84451189 C7.1452537,6.84451189 7.82601001,6.99919801 7.81163704,7.00878492 C8.18324374,7.10076745 8.25040473,7.34458592 8.23916768,7.53787879 L7.81111438,9.24046244 C7.83672441,9.24694008 7.86991291,9.256527 7.90649866,9.27077781 L7.80954642,9.24694008 L7.20954009,11.6320082 C7.16406923,11.7439419 7.04882411,11.9118424 6.78880394,11.8481024 C6.79821171,11.8613168 6.12215928,11.683052 6.12215928,11.683052 L5.66666667,12.724657 L6.86066881,13.0200375 C7.08279659,13.0749679 7.30048182,13.1327485 7.51476979,13.1871607 L7.13506195,14.6987834 L8.05153504,14.9255009 L8.42732297,13.4296836 C8.67767405,13.4973102 8.92070797,13.5592365 9.15851536,13.6180535 L8.78377273,15.1066158 L9.70102979,15.3333333 L10.080999,13.8245608 C11.6455625,14.1181275 12.8220558,13.9997162 13.31727,12.5969179 C13.7163161,11.467217 13.2974092,10.8155661 12.4742298,10.3903736 C13.0737135,10.2530476 13.5252862,9.86205705 13.6457578,9.05442454 L13.6457578,9.05442454 Z M11.5491329,11.9688456 C11.2655933,13.0985465 9.34719331,12.4880935 8.72523553,12.3347029 L9.22907359,10.3320748 C9.85103138,10.4862427 11.8454775,10.790951 11.5491329,11.9688456 Z M11.8329338,9.03835998 C11.5742203,10.0657141 9.97751355,9.54361613 9.45956383,9.41561791 L9.91636308,7.59928684 C10.4343128,7.72728507 12.1023618,7.96618053 11.8329338,9.03810088 L11.8329338,9.03835998 Z" id="Shape" fill="#FFFFFF" fill-rule="nonzero"></path>
                    </g>
                </g>
            </g>
        </g>
    </g>
</svg>