<?xml version="1.0" encoding="UTF-8"?>
<svg width="22px" height="22px" viewBox="0 0 22 22" version="1.1" xmlns="http://www.w3.org/2000/svg" xmlns:xlink="http://www.w3.org/1999/xlink">
    <!-- Generator: Sketch 54.1 (76490) - https://sketchapp.com -->
    <title>check_green</title>
    <desc>Created with Sketch.</desc>
    <g id="Page-1" stroke="none" stroke-width="1" fill="none" fill-rule="evenodd">
        <g id="Transcrypt_Account-types" transform="translate(-260.000000, -459.000000)" fill="#04BA3B" fill-rule="nonzero">
            <g id="level-1" transform="translate(145.000000, 432.000000)">
                <g id="check_green" transform="translate(115.000000, 27.000000)">
                    <path d="M11,22 C17.0751322,22 22,17.0751322 22,11 C22,4.92486775 17.0751322,0 11,0 C4.92486775,0 0,4.92486775 0,11 C0,17.0751322 4.92486775,22 11,22 Z M11,21 C5.4771525,21 1,16.5228475 1,11 C1,5.4771525 5.4771525,1 11,1 C16.5228475,1 21,5.4771525 21,11 C21,16.5228475 16.5228475,21 11,21 Z" id="Oval"></path>
                    <path d="M5.37164707,10.6655176 C5.18691756,10.4602626 4.87077264,10.4436234 4.66551763,10.6283529 C4.46026262,10.8130824 4.44362342,11.1292274 4.62835293,11.3344824 L9.12835293,16.3344824 C9.3320833,16.5608494 9.6891452,16.5540507 9.88411064,16.3200922 L17.3841106,7.3200922 C17.5608927,7.10795375 17.5322306,6.7926714 17.3200922,6.61588936 C17.1079538,6.43910732 16.7926714,6.46776935 16.6158894,6.6799078 L9.48546093,15.2364219 L5.37164707,10.6655176 Z" id="Path"></path>
                </g>
            </g>
        </g>
    </g>
</svg>