<?xml version="1.0" encoding="UTF-8"?>
<svg width="20px" height="20px" viewBox="0 0 20 20" version="1.1" xmlns="http://www.w3.org/2000/svg" xmlns:xlink="http://www.w3.org/1999/xlink">
    <!-- Generator: Sketch 54.1 (76490) - https://sketchapp.com -->
    <title>eur</title>
    <desc>Created with Sketch.</desc>
    <g id="Page-1" stroke="none" stroke-width="1" fill="none" fill-rule="evenodd">
        <g id="Transcrypt_Account-types" transform="translate(-206.000000, -722.000000)">
            <g id="level-1" transform="translate(145.000000, 432.000000)">
                <g id="table" transform="translate(0.000000, 242.000000)">
                    <g id="eur" transform="translate(61.000000, 48.000000)">
                        <path d="M19.7009875,12.4188585 C18.3651995,17.7769422 12.9385995,21.036292 7.57982034,19.7006773 C2.223854,18.3650626 -1.03685656,12.9388545 0.299556584,7.58202088 C1.63471958,2.22393725 7.061007,-1.03635008 12.417911,0.299264605 C17.7760651,1.63487929 21.0364631,7.0617124 19.700675,12.4188585 L19.7009875,12.4188585 Z" id="Path" fill="#FFFFFF"></path>
                        <path d="M13.018,13.316 L13.172,14.632 C12.4159962,14.8746679 11.5573381,14.996 10.596,14.996 C9.32666032,14.996 8.37933646,14.695003 7.754,14.093 C7.12866354,13.490997 6.7460007,12.5600063 6.606,11.3 L5.5,11.3 L5.5,10.334 L6.55,10.334 L6.55,9.508 L5.514,9.508 L5.514,8.528 L6.634,8.528 C6.78333408,7.32399398 7.17066354,6.43500287 7.796,5.861 C8.42133646,5.28699713 9.35466046,5 10.596,5 C11.454671,5 12.2479964,5.10266564 12.976,5.308 L12.822,6.638 C12.0006626,6.4979993 11.221337,6.46533296 10.484,6.54 C9.89599706,6.57733352 9.44333492,6.75466508 9.126,7.072 C8.80866508,7.38933492 8.59400056,7.8746634 8.482,8.528 L11.8,8.528 L11.688,9.508 L8.384,9.508 L8.384,10.334 L11.338,10.334 L11.24,11.3 L8.454,11.3 C8.55666718,12.0186703 8.76666508,12.5506649 9.084,12.896 C9.40133492,13.2413351 9.86799692,13.4279999 10.484,13.456 C11.3333376,13.5213337 12.1779958,13.4746675 13.018,13.316 Z" id="€" fill="#2F304B" fill-rule="nonzero"></path>
                    </g>
                </g>
            </g>
        </g>
    </g>
</svg>