<?xml version="1.0" encoding="UTF-8"?>
<svg width="136px" height="30px" viewBox="0 0 136 30" version="1.1" xmlns="http://www.w3.org/2000/svg" xmlns:xlink="http://www.w3.org/1999/xlink">
    <!-- Generator: Sketch 52.4 (67378) - http://www.bohemiancoding.com/sketch -->
    <title>Group 2</title>
    <desc>Created with Sketch.</desc>
    <g id="Symbols" stroke="none" stroke-width="1" fill="none" fill-rule="evenodd">
        <g id="logo1" fill="#FFFFFF">
            <g id="Group-2">
                <g id="Group">
                    <path d="M13.4566474,14.7483308 C12.6655978,14.9344186 11.8006571,15.0274625 10.8618252,15.0274625 C9.91807561,15.0274625 9.08359439,14.9130715 8.3583815,14.6842896 L8.3583815,4.40462428 L2.84217094e-14,4.40462428 C2.84217094e-14,1.46819341 1.32946647,0 3.98843931,0 L21.7803468,0 C21.7803468,2.93643087 20.4508803,4.40462428 17.7919075,4.40462428 L13.4566474,4.40462428 L13.4566474,14.7483308 Z M13.4566474,16.3904495 L13.4566474,20.9132948 C13.4566474,22.1156129 13.0231257,23.0288986 12.1560694,23.6531792 C11.289013,24.2774598 10.0231297,24.5895954 8.3583815,24.5895954 L8.3583815,16.3760888 C9.44689084,16.470257 10.3023822,16.517341 10.9248555,16.517341 C11.4904874,16.517341 12.334418,16.4750439 13.4566474,16.3904495 Z" id="Combined-Shape"></path>
                    <path d="M13.4393064,5.42051443 L13.4393064,7.25497637 C12.6304359,7.1597958 11.7834013,7.10982659 10.9167181,7.10982659 C8.34653154,7.10982659 5.94914342,7.54927819 4.20744619,8.30409508 C2.64031945,8.9832566 1.82670184,9.81691003 1.82670184,10.5346821 C1.82670184,11.2524541 2.64031945,12.0861076 4.20744619,12.7652691 C5.94914342,13.520086 8.34653154,13.9595376 10.9167181,13.9595376 C11.7834013,13.9595376 12.6304359,13.9095684 13.4393064,13.8143878 L13.4393064,15.6488497 C12.6281513,15.7353169 11.7833182,15.7803468 10.9167181,15.7803468 C4.94083115,15.7803468 0,13.639089 0,10.5346821 C0,7.43027516 4.94083115,5.28901734 10.9167181,5.28901734 C11.7833182,5.28901734 12.6281513,5.33404731 13.4393064,5.42051443 Z" id="Combined-Shape" fill-rule="nonzero"></path>
                </g>
                <path d="M26.2023121,11.4624277 L25.8121387,15.0260116 L24.7716763,15.0260116 C23.9219611,15.0260116 22.6127256,15.3208063 20.8439306,15.9104046 L20.8439306,24.650289 L16.9942197,24.650289 L16.9942197,11.8265896 L19.9855491,11.8265896 L20.3236994,13.699422 C22.0751533,12.208085 23.80924,11.4624277 25.5260116,11.4624277 L26.2023121,11.4624277 Z M28.3872832,14.6878613 L28.0231214,12.0867052 C30.3294913,11.6705182 32.5577927,11.4624277 34.7080925,11.4624277 C36.4422052,11.4624277 37.7167589,11.8135803 38.5317919,12.515896 C39.3468249,13.2182116 39.7543353,14.4364075 39.7543353,16.1705202 L39.7543353,24.650289 L36.7109827,24.650289 L36.3208092,22.699422 C35.0375658,24.2081 33.4595469,24.9624277 31.5867052,24.9624277 C30.3554852,24.9624277 29.3497149,24.6372865 28.5693642,23.9869942 C27.7890134,23.336702 27.3988439,22.4306416 27.3988439,21.2687861 L27.3988439,19.9682081 C27.3988439,18.9450816 27.7456613,18.1474017 28.4393064,17.5751445 C29.1329514,17.0028873 30.0953696,16.716763 31.3265896,16.716763 L35.9046243,16.716763 L35.9046243,16.1445087 C35.8872832,15.4855458 35.7355506,15.0433537 35.449422,14.8179191 C35.1632934,14.5924844 34.6127208,14.4797688 33.7976879,14.4797688 C32.3757154,14.4797688 30.5722653,14.5491323 28.3872832,14.6878613 Z M31.1965318,20.2543353 L31.1965318,20.7485549 C31.1965318,21.6329524 31.6994169,22.0751445 32.7052023,22.0751445 C33.7456699,22.0751445 34.8121333,21.6589637 35.9046243,20.8265896 L35.9046243,19.0317919 L32.4450867,19.0317919 C31.6127126,19.049133 31.1965318,19.4566434 31.1965318,20.2543353 Z M45.9190751,11.8265896 L46.2052023,13.7254335 C48.0607029,12.2167555 49.8901644,11.4624277 51.6936416,11.4624277 C52.8554971,11.4624277 53.7442166,11.7658929 54.3598266,12.3728324 C54.9754366,12.9797718 55.283237,13.864156 55.283237,15.0260116 L55.283237,24.650289 L51.4595376,24.650289 L51.4595376,16.2225434 C51.4595376,15.6502862 51.368498,15.2557814 51.1864162,15.0390173 C51.0043343,14.8222533 50.6791931,14.7138728 50.2109827,14.7138728 C49.3959497,14.7138728 48.2081003,15.1040423 46.6473988,15.8843931 L46.6473988,24.650289 L42.7976879,24.650289 L42.7976879,11.8265896 L45.9190751,11.8265896 Z M64.0751445,19.8901734 L60.8757225,19.0317919 C59.6965259,18.6849694 58.8815051,18.2124307 58.4306358,17.6141618 C57.9797665,17.015893 57.7543353,16.1878666 57.7543353,15.1300578 C57.7543353,13.794791 58.1661809,12.8497138 58.9898844,12.2947977 C59.8135879,11.7398816 61.2225334,11.4624277 63.216763,11.4624277 C65.5231329,11.49711 67.4999918,11.6618482 69.1473988,11.9566474 L68.8872832,14.4277457 C66.7023012,14.3930634 65.0549188,14.3757225 63.9450867,14.3757225 C63.3381473,14.3757225 62.9176312,14.3800578 62.683526,14.3887283 C62.4494208,14.3973989 62.2153191,14.4277454 61.9812139,14.4797688 C61.7471087,14.5317922 61.6040465,14.6141613 61.5520231,14.7268786 C61.4999997,14.8395959 61.4739884,15.0086694 61.4739884,15.234104 C61.4739884,15.3208097 61.4783237,15.3988436 61.4869942,15.4682081 C61.4956648,15.5375726 61.5173409,15.6026009 61.5520231,15.6632948 C61.5867054,15.7239887 61.6170519,15.7716761 61.6430636,15.8063584 C61.6690753,15.8410406 61.7167627,15.8800576 61.7861272,15.9234104 C61.8554917,15.9667632 61.9118495,15.9971097 61.9552023,16.0144509 C61.9985551,16.031792 62.076589,16.0621385 62.1893064,16.1054913 C62.3020237,16.1488441 62.388728,16.1791907 62.449422,16.1965318 C62.5101159,16.2138729 62.6228315,16.2442194 62.7875723,16.2875723 C62.952313,16.3309251 63.0780342,16.3612716 63.1647399,16.3786127 L66.4421965,17.2630058 C67.5867109,17.5924872 68.4017317,18.0303441 68.8872832,18.5765896 C69.3728348,19.1228351 69.6156069,19.9335206 69.6156069,21.0086705 C69.6156069,22.5346897 69.1734148,23.5708065 68.2890173,24.117052 C67.4046199,24.6632975 65.887294,24.9364162 63.7369942,24.9364162 C61.656059,24.9364162 59.7398932,24.7890188 57.9884393,24.4942197 L58.2225434,21.9971098 C58.8468239,22.0317921 60.3294681,22.0491329 62.6705202,22.0491329 C64.005787,22.0491329 64.8771656,21.9927751 65.2846821,21.8800578 C65.6921986,21.7673405 65.8959538,21.5028923 65.8959538,21.0867052 C65.8959538,20.9999996 65.8916185,20.9219657 65.882948,20.8526012 C65.8742774,20.7832366 65.8526013,20.7182084 65.8179191,20.6575145 C65.7832368,20.5968205 65.7485551,20.5491331 65.7138728,20.5144509 C65.6791906,20.4797686 65.6228328,20.4407517 65.5447977,20.3973988 C65.4667626,20.354046 65.4060696,20.3193643 65.3627168,20.2933526 C65.3193639,20.2673409 65.2369948,20.2326592 65.1156069,20.1893064 C64.994219,20.1459535 64.8988443,20.115607 64.8294798,20.0982659 L64.4653179,20.0072254 C64.2919066,19.9638726 64.1618501,19.9248557 64.0751445,19.8901734 Z M82.5953757,21.6069364 L82.933526,24.1040462 C81.6156003,24.6763034 79.9595475,24.9624277 77.9653179,24.9624277 C75.6069246,24.9624277 73.9465366,24.4552074 72.984104,23.4407514 C72.0216715,22.4262955 71.5404624,20.6878736 71.5404624,18.2254335 C71.5404624,15.7456523 72.0260067,13.99856 72.9971098,12.984104 C73.9682129,11.9696481 75.6416066,11.4624277 78.017341,11.4624277 C79.9595473,11.4624277 81.5375662,11.7312112 82.7514451,12.2687861 L82.3352601,14.6618497 C80.4624184,14.6271675 79.2398873,14.6098266 78.6676301,14.6098266 C77.4884334,14.6098266 76.6777479,14.8612692 76.2355491,15.3641618 C75.7933504,15.8670545 75.5722543,16.8208022 75.5722543,18.2254335 C75.5722543,19.6300648 75.7933504,20.5838125 76.2355491,21.0867052 C76.6777479,21.5895979 77.4884334,21.8410405 78.6676301,21.8410405 C80.1763081,21.8410405 81.4855436,21.7630066 82.5953757,21.6069364 Z M94.482659,11.4624277 L94.0924855,15.0260116 L93.0520231,15.0260116 C92.2023079,15.0260116 90.8930724,15.3208063 89.1242775,15.9104046 L89.1242775,24.650289 L85.2745665,24.650289 L85.2745665,11.8265896 L88.265896,11.8265896 L88.6040462,13.699422 C90.3555001,12.208085 92.0895868,11.4624277 93.8063584,11.4624277 L94.482659,11.4624277 Z M109.153179,11.8265896 L104.601156,24.8323699 C104.35838,25.526015 104.05925,26.1676271 103.703757,26.7572254 C103.348264,27.3468238 102.893066,27.9147372 102.33815,28.4609827 C101.783234,29.0072282 101.093935,29.4104033 100.270231,29.6705202 C99.4465277,29.9306371 98.5317969,30.0000006 97.5260116,29.8786127 L97.2138728,27.6156069 C98.2543405,27.3381489 99.0693612,26.9783259 99.6589595,26.5361272 C100.248558,26.0939284 100.708091,25.5000037 101.037572,24.7543353 L101.089595,24.650289 L100.361272,24.650289 C99.71965,24.650289 99.3034692,24.3381534 99.1127168,23.7138728 L94.9248555,11.8265896 L99.0346821,11.8265896 L101.427746,20.1242775 C101.583816,20.7312169 101.713872,21.372829 101.817919,22.0491329 L102.156069,22.0491329 C102.208093,21.8410394 102.294797,21.5158982 102.416185,21.0736994 C102.537573,20.6315007 102.624277,20.3150299 102.676301,20.1242775 L105.043353,11.8265896 L109.153179,11.8265896 Z M114.069364,11.8265896 L114.355491,13.699422 C114.893066,13.0578003 115.634388,12.5289038 116.57948,12.1127168 C117.524571,11.6965297 118.482654,11.4884393 119.453757,11.4884393 C122.401749,11.4884393 123.875723,13.7774338 123.875723,18.3554913 C123.875723,20.8179314 123.481218,22.5390124 122.692197,23.5187861 C121.903175,24.4985598 120.667638,24.9884393 118.985549,24.9884393 C117.251436,24.9884393 115.820815,24.5722585 114.693642,23.7398844 C114.780347,24.6242819 114.806359,25.5433478 114.771676,26.4971098 L114.771676,29.5924855 L110.947977,29.5924855 L110.947977,11.8265896 L114.069364,11.8265896 Z M114.771676,15.7283237 L114.771676,21.6069364 C116.124284,21.953759 117.095373,22.1271676 117.684971,22.1271676 C118.534686,22.1271676 119.119941,21.8843955 119.440751,21.3988439 C119.761562,20.9132924 119.921965,19.8988516 119.921965,18.3554913 C119.921965,16.8468133 119.774568,15.8280373 119.479769,15.2991329 C119.18497,14.7702286 118.664744,14.5057803 117.919075,14.5057803 C117.06936,14.5057803 116.020237,14.9132907 114.771676,15.7283237 Z M131.549133,14.4017341 L131.549133,20.4624277 C131.549133,20.9479793 131.653178,21.2861262 131.861272,21.4768786 C132.069365,21.667631 132.433523,21.7630058 132.953757,21.7630058 L134.592486,21.7630058 L135.008671,24.4421965 C134.020226,24.7890191 132.815036,24.9624277 131.393064,24.9624277 C130.231208,24.9624277 129.329483,24.6372865 128.687861,23.9869942 C128.04624,23.336702 127.725434,22.4306416 127.725434,21.2687861 L127.725434,14.4017341 L125.462428,14.4017341 L125.462428,11.9566474 L127.725434,11.8265896 L127.725434,8.23699422 L131.549133,8.23699422 L131.549133,11.8265896 L135.112717,11.8265896 L135.112717,14.4017341 L131.549133,14.4017341 Z" id="Transcrypt"></path>
            </g>
        </g>
    </g>
</svg>